<mxfile host="app.diagrams.net" agent="Mozilla/5.0 (Windows NT 10.0; Win64; x64) AppleWebKit/537.36 (KHTML, like Gecko) Chrome/110.0.0.0 Safari/537.36" version="24.7.16">
  <diagram name="第 1 页" id="gWW3h5Sz0BL3gIwqYBa1">
    <mxGraphModel dx="869" dy="463" grid="1" gridSize="10" guides="1" tooltips="1" connect="1" arrows="1" fold="1" page="1" pageScale="1" pageWidth="827" pageHeight="1169" math="0" shadow="0">
      <root>
        <mxCell id="0" />
        <mxCell id="1" parent="0" />
        <mxCell id="88G9YL_cdyoRNoqROV1B-10" style="edgeStyle=orthogonalEdgeStyle;rounded=0;orthogonalLoop=1;jettySize=auto;html=1;" edge="1" parent="1" source="88G9YL_cdyoRNoqROV1B-3" target="88G9YL_cdyoRNoqROV1B-4">
          <mxGeometry relative="1" as="geometry" />
        </mxCell>
        <mxCell id="88G9YL_cdyoRNoqROV1B-3" value="開始" style="strokeWidth=2;html=1;shape=mxgraph.flowchart.terminator;whiteSpace=wrap;fillColor=none;strokeColor=#b85450;gradientColor=none;rotation=0;" vertex="1" parent="1">
          <mxGeometry x="350" y="170" width="100" height="60" as="geometry" />
        </mxCell>
        <mxCell id="88G9YL_cdyoRNoqROV1B-11" style="edgeStyle=orthogonalEdgeStyle;rounded=0;orthogonalLoop=1;jettySize=auto;html=1;entryX=0.5;entryY=0;entryDx=0;entryDy=0;" edge="1" parent="1" source="88G9YL_cdyoRNoqROV1B-4" target="88G9YL_cdyoRNoqROV1B-6">
          <mxGeometry relative="1" as="geometry" />
        </mxCell>
        <mxCell id="88G9YL_cdyoRNoqROV1B-12" style="edgeStyle=orthogonalEdgeStyle;rounded=0;orthogonalLoop=1;jettySize=auto;html=1;exitX=1;exitY=0.5;exitDx=0;exitDy=0;exitPerimeter=0;entryX=0.5;entryY=0;entryDx=0;entryDy=0;" edge="1" parent="1" source="88G9YL_cdyoRNoqROV1B-4" target="88G9YL_cdyoRNoqROV1B-9">
          <mxGeometry relative="1" as="geometry" />
        </mxCell>
        <mxCell id="88G9YL_cdyoRNoqROV1B-4" value="條件式" style="strokeWidth=2;html=1;shape=mxgraph.flowchart.decision;whiteSpace=wrap;strokeColor=#159C44;" vertex="1" parent="1">
          <mxGeometry x="270" y="270" width="260" height="100" as="geometry" />
        </mxCell>
        <mxCell id="88G9YL_cdyoRNoqROV1B-6" value="處理程序1" style="rounded=1;whiteSpace=wrap;html=1;absoluteArcSize=1;arcSize=14;strokeWidth=2;strokeColor=#2B5DFF;" vertex="1" parent="1">
          <mxGeometry x="325" y="490" width="150" height="100" as="geometry" />
        </mxCell>
        <mxCell id="88G9YL_cdyoRNoqROV1B-8" value="結束" style="strokeWidth=2;html=1;shape=mxgraph.flowchart.terminator;whiteSpace=wrap;fillColor=none;strokeColor=#b85450;" vertex="1" parent="1">
          <mxGeometry x="350" y="710" width="100" height="60" as="geometry" />
        </mxCell>
        <mxCell id="88G9YL_cdyoRNoqROV1B-15" style="edgeStyle=orthogonalEdgeStyle;rounded=0;orthogonalLoop=1;jettySize=auto;html=1;" edge="1" parent="1" source="88G9YL_cdyoRNoqROV1B-9">
          <mxGeometry relative="1" as="geometry">
            <mxPoint x="400" y="650" as="targetPoint" />
            <Array as="points">
              <mxPoint x="645" y="650" />
            </Array>
          </mxGeometry>
        </mxCell>
        <mxCell id="88G9YL_cdyoRNoqROV1B-9" value="處理程序2" style="rounded=1;whiteSpace=wrap;html=1;absoluteArcSize=1;arcSize=14;strokeWidth=2;strokeColor=#3853FF;" vertex="1" parent="1">
          <mxGeometry x="570" y="490" width="150" height="100" as="geometry" />
        </mxCell>
        <mxCell id="88G9YL_cdyoRNoqROV1B-13" style="edgeStyle=orthogonalEdgeStyle;rounded=0;orthogonalLoop=1;jettySize=auto;html=1;entryX=0.5;entryY=0;entryDx=0;entryDy=0;entryPerimeter=0;" edge="1" parent="1" source="88G9YL_cdyoRNoqROV1B-6" target="88G9YL_cdyoRNoqROV1B-8">
          <mxGeometry relative="1" as="geometry" />
        </mxCell>
        <mxCell id="88G9YL_cdyoRNoqROV1B-17" value="False" style="text;html=1;align=center;verticalAlign=middle;resizable=0;points=[];autosize=1;strokeColor=none;fillColor=none;" vertex="1" parent="1">
          <mxGeometry x="530" y="298" width="50" height="30" as="geometry" />
        </mxCell>
        <mxCell id="88G9YL_cdyoRNoqROV1B-18" value="True" style="text;html=1;align=center;verticalAlign=middle;resizable=0;points=[];autosize=1;strokeColor=none;fillColor=none;" vertex="1" parent="1">
          <mxGeometry x="355" y="400" width="50" height="30" as="geometry" />
        </mxCell>
      </root>
    </mxGraphModel>
  </diagram>
</mxfile>
